<?xml version="1.0" standalone="no"?>
<!DOCTYPE svg PUBLIC "-//W3C//DTD SVG 20010904//EN"
 "http://www.w3.org/TR/2001/REC-SVG-20010904/DTD/svg10.dtd">
<svg version="1.0" xmlns="http://www.w3.org/2000/svg"
 width="1199.000000pt" height="424.000000pt" viewBox="0 0 1199.000000 424.000000"
 preserveAspectRatio="xMidYMid meet">

<g transform="translate(0.000000,424.000000) scale(0.100000,-0.100000)"
fill="#000000" stroke="none">
<path d="M89 3758 c0 -227 -2 -421 -4 -430 -4 -22 -5 -22 100 3 317 75 647 62
945 -38 186 -63 343 -152 468 -269 75 -69 117 -129 202 -289 121 -228 212
-368 284 -440 149 -148 406 -228 677 -212 142 9 321 59 414 117 l35 22 0 974
0 974 -1560 0 -1560 0 -1 -412z m2921 -606 l0 -808 -62 -21 c-295 -100 -649
-16 -781 184 -48 73 -134 223 -212 368 -83 155 -137 225 -250 325 -220 193
-520 320 -867 366 -95 12 -165 15 -303 10 -99 -3 -195 -9 -212 -12 l-33 -6 0
201 0 201 1360 0 1360 0 0 -808z"/>
<path d="M505 3009 c-166 -22 -415 -116 -415 -157 0 -16 0 -1774 0 -1799 0
-10 319 -13 1560 -13 l1560 0 2 465 c2 305 0 465 -7 465 -5 0 -48 -6 -95 -14
-253 -43 -553 -22 -793 55 -102 33 -296 135 -390 205 -48 36 -174 154 -280
262 -266 272 -312 316 -390 368 -207 138 -488 199 -752 163z m348 -213 c98
-19 211 -65 290 -117 37 -25 162 -144 309 -294 315 -321 429 -408 659 -508
246 -107 534 -159 792 -143 l107 7 0 -250 0 -251 -1360 0 -1360 0 0 750 0 749
28 15 c23 11 96 31 187 50 51 10 280 5 348 -8z"/>
<path d="M3742 1658 l3 -623 4098 -3 4097 -2 0 625 0 625 -4100 0 -4100 0 2
-622z m7863 302 c129 -19 179 -68 192 -189 l6 -62 -124 3 c-119 3 -124 4 -127
25 -6 44 -23 48 -227 48 -148 0 -196 -3 -208 -14 -20 -16 -23 -76 -4 -88 6 -4
122 -11 257 -15 324 -9 386 -25 435 -108 13 -24 20 -58 23 -119 5 -108 -10
-166 -53 -207 -58 -54 -96 -59 -445 -59 -277 0 -320 2 -361 18 -82 31 -119 92
-119 194 l0 54 123 -3 122 -3 3 -27 c6 -53 28 -58 237 -58 215 0 238 6 243 57
6 59 -14 64 -305 73 -142 5 -276 14 -298 20 -52 16 -100 66 -115 121 -17 61
-7 201 18 242 28 49 96 85 177 96 98 12 466 13 550 1z m-6504 -11 c62 -13 122
-64 140 -117 17 -52 15 -219 -4 -264 -10 -23 -30 -45 -55 -59 l-39 -23 30 -15
c59 -31 72 -61 75 -182 l4 -109 -120 0 -120 0 -4 81 c-5 121 -1 119 -254 119
l-204 0 0 -100 0 -101 -122 3 c-68 2 -122 6 -120 11 1 4 2 178 2 387 l0 380
370 0 c232 0 388 -4 421 -11z m1167 -86 l3 -93 -306 0 -306 0 3 -56 3 -55 257
1 c141 0 269 -2 283 -6 24 -6 25 -9 25 -85 l0 -79 -285 0 -285 0 0 -60 0 -60
310 0 310 0 0 -95 0 -95 -430 0 -430 0 0 390 0 390 423 -2 422 -3 3 -92z m410
-295 l2 -388 -120 0 -120 0 0 390 0 391 118 -3 117 -3 3 -387z m743 186 c90
-113 189 -238 219 -277 l55 -72 3 278 2 277 120 0 120 0 0 -390 0 -390 -187 1
-188 0 -55 74 c-43 57 -238 303 -362 458 -17 21 -18 9 -18 -255 l0 -278 -120
0 -120 0 0 390 0 390 184 0 184 0 163 -206z m1567 104 l3 -98 -165 0 -166 0
-2 -287 -3 -288 -122 -3 -123 -3 0 291 0 290 -165 0 -165 0 0 100 0 100 453
-2 452 -3 3 -97z m707 -203 c0 -330 -5 -363 -63 -417 -58 -54 -107 -63 -342
-63 -198 0 -219 2 -260 21 -94 44 -123 98 -124 234 l-1 85 118 3 117 3 0 -51
c0 -41 5 -56 25 -75 22 -23 31 -25 125 -25 96 0 135 9 152 34 4 6 8 131 8 277
0 146 3 269 7 273 4 3 59 5 122 4 l116 -3 0 -300z m1025 210 l0 -95 -300 0
-300 0 0 -60 0 -60 285 0 285 0 0 -80 0 -80 -285 0 -285 0 0 -60 0 -60 310 0
310 0 0 -95 0 -95 -435 0 -435 0 0 383 c0 211 3 387 7 390 3 4 195 7 425 7
l418 0 0 -95z"/>
<path d="M4550 1671 l0 -91 213 0 c252 0 252 0 252 84 0 91 1 90 -250 94
l-215 3 0 -90z"/>
<path d="M87 693 c-4 -3 -7 -150 -7 -325 l0 -319 58 3 57 3 3 101 3 102 122 4
c146 5 173 15 205 78 17 35 22 61 22 125 -1 163 -31 211 -146 225 -81 11 -308
13 -317 3z m329 -124 c15 -17 19 -36 19 -96 0 -98 -7 -103 -137 -103 l-98 0 0
110 0 110 98 0 c88 0 101 -2 118 -21z"/>
<path d="M801 689 c-100 -31 -116 -73 -116 -314 0 -203 7 -237 60 -283 46 -41
143 -58 250 -43 93 13 126 31 157 85 22 39 23 50 23 241 0 180 -2 204 -20 240
-32 64 -69 79 -204 82 -64 1 -131 -2 -150 -8z m233 -112 c30 -20 36 -53 36
-209 0 -156 -11 -190 -65 -208 -51 -17 -160 -9 -183 13 -15 15 -17 42 -20 190
-3 162 -2 174 18 199 11 15 30 29 43 32 41 9 147 -2 171 -17z"/>
<path d="M1288 695 c-3 -3 -2 -23 3 -43 9 -42 73 -308 115 -485 l28 -118 80 3
80 3 61 245 62 245 59 -245 60 -245 81 -3 81 -3 10 43 c5 24 40 165 76 315 36
149 66 276 66 283 0 7 -18 10 -52 8 l-53 -3 -21 -85 c-12 -47 -41 -166 -64
-265 -23 -99 -43 -181 -45 -183 -1 -1 -28 104 -60 235 -32 131 -62 253 -67
271 -9 31 -10 32 -68 32 -32 0 -62 -5 -65 -10 -3 -6 -31 -110 -61 -233 -69
-278 -75 -300 -79 -296 -1 2 -26 108 -54 234 -76 338 -63 305 -120 305 -26 0
-50 -2 -53 -5z"/>
<path d="M2277 694 c-4 -4 -7 -151 -7 -326 l0 -318 200 0 200 0 0 55 0 55
-145 0 -145 0 0 85 0 85 135 0 135 0 0 50 0 50 -135 0 -135 0 0 80 0 80 146 0
145 0 -3 53 -3 52 -191 3 c-104 1 -193 -1 -197 -4z"/>
<path d="M2825 689 c-3 -8 -4 -154 -3 -324 l3 -310 58 -3 57 -3 0 111 0 112
100 -4 c128 -4 133 -8 140 -126 l5 -87 59 -3 59 -3 -5 100 c-5 110 -19 144
-66 162 l-27 11 33 13 c45 19 62 65 62 162 -1 102 -24 157 -77 180 -53 23
-390 33 -398 12z m345 -126 c19 -24 21 -38 18 -91 -6 -90 -15 -96 -143 -100
l-105 -4 0 111 0 111 104 0 c102 0 105 -1 126 -27z"/>
<path d="M3760 645 l0 -55 85 0 85 0 0 -270 0 -270 55 0 55 0 0 270 0 269 88
3 87 3 3 29 c2 15 1 39 -2 52 l-6 24 -225 0 -225 0 0 -55z"/>
<path d="M4335 689 c-3 -8 -4 -154 -3 -324 l3 -310 58 -3 57 -3 0 112 0 111
100 -4 c129 -5 133 -9 140 -126 l5 -87 55 0 55 0 -1 98 c-2 108 -18 149 -63
155 -28 4 -27 18 3 26 46 11 61 51 61 161 0 115 -15 154 -68 181 -44 24 -394
34 -402 13z m339 -115 c22 -22 29 -57 24 -116 -8 -77 -26 -88 -149 -88 l-99 0
0 110 0 110 104 0 c82 0 108 -3 120 -16z"/>
<path d="M5110 678 c-6 -13 -49 -151 -95 -308 -47 -157 -88 -293 -91 -303 -5
-16 0 -18 53 -15 l58 3 18 58 18 57 129 0 129 0 17 -60 17 -60 53 0 c65 0 65
0 25 125 -16 49 -46 144 -66 210 -20 66 -50 164 -67 218 l-31 97 -79 0 c-72 0
-79 -2 -88 -22z m143 -253 l45 -150 -95 -3 c-53 -1 -97 -1 -99 1 -2 1 17 71
41 155 25 84 45 155 45 159 0 29 25 -36 63 -162z"/>
<path d="M5600 376 l0 -326 55 0 55 0 -2 323 -3 322 -52 3 -53 3 0 -325z"/>
<path d="M5885 687 c-3 -7 -4 -152 -3 -322 l3 -310 53 0 53 0 -1 254 c0 140
-3 258 -6 262 -3 5 -1 9 3 9 5 0 63 -118 130 -262 l122 -263 96 -3 95 -3 -2
323 -3 323 -54 0 -55 0 3 -265 c1 -146 1 -263 -2 -260 -2 3 -58 120 -123 260
-65 140 -122 258 -128 262 -20 14 -176 9 -181 -5z"/>
<path d="M7045 694 c-50 -12 -76 -29 -94 -58 -44 -71 -35 -210 17 -259 32 -31
93 -46 185 -47 66 0 104 -11 119 -34 4 -6 8 -32 8 -59 0 -73 -20 -87 -123 -87
-98 0 -116 10 -124 68 l-6 42 -55 0 -55 0 6 -62 c10 -117 61 -150 231 -152 93
0 119 3 157 20 63 29 79 66 79 181 0 145 -24 166 -200 179 -47 4 -100 13 -117
20 -32 12 -33 15 -33 68 0 73 18 86 121 86 85 0 109 -14 109 -63 0 -26 2 -27
55 -27 l55 0 0 41 c0 23 -7 56 -16 75 -26 54 -62 68 -189 70 -60 2 -119 0
-130 -2z"/>
<path d="M7644 690 c-49 -11 -91 -47 -106 -88 -9 -26 -13 -96 -13 -232 0 -183
1 -198 23 -237 28 -53 62 -71 160 -85 90 -13 152 -6 213 25 88 44 105 108 97
360 -7 228 -45 268 -258 266 -47 -1 -99 -4 -116 -9z m198 -100 c21 -6 43 -21
50 -33 19 -32 18 -311 -1 -354 -15 -38 -55 -53 -136 -53 -110 0 -128 37 -123
245 2 85 9 149 16 162 21 38 117 54 194 33z"/>
<path d="M8177 693 c-4 -3 -7 -150 -7 -325 l0 -318 196 0 195 0 -3 53 -3 52
-135 5 -135 5 -3 268 -2 267 -48 0 c-27 0 -52 -3 -55 -7z"/>
<path d="M8687 693 c-11 -10 -7 -474 4 -523 13 -56 51 -97 104 -112 22 -6 85
-12 140 -12 133 0 187 22 216 88 18 41 19 64 17 303 l-3 258 -50 0 -50 0 -6
-255 c-3 -140 -6 -256 -7 -258 -9 -13 -81 -32 -125 -32 -77 0 -113 15 -126 52
-7 19 -11 124 -11 264 l0 234 -48 0 c-27 0 -52 -3 -55 -7z"/>
<path d="M9294 686 c-3 -8 -4 -31 -2 -52 l3 -39 82 -3 83 -3 2 -267 3 -267 58
-3 57 -3 0 271 0 270 86 0 85 0 -3 53 -3 52 -223 3 c-184 2 -223 0 -228 -12z"/>
<path d="M9877 694 c-4 -4 -7 -151 -7 -326 l0 -319 58 3 57 3 0 320 0 320 -50
3 c-28 2 -54 0 -58 -4z"/>
<path d="M10247 686 c-97 -36 -110 -77 -105 -332 3 -211 11 -239 76 -277 68
-40 266 -39 336 1 17 9 41 37 54 62 20 41 22 57 22 235 0 178 -2 194 -22 235
-36 70 -71 84 -208 88 -80 1 -127 -2 -153 -12z m251 -121 c23 -27 23 -32 20
-196 -3 -156 -5 -170 -24 -190 -27 -26 -133 -38 -187 -20 -31 11 -38 19 -48
54 -16 59 -8 329 10 351 21 25 69 36 141 32 55 -4 68 -8 88 -31z"/>
<path d="M10797 694 c-4 -4 -7 -151 -7 -326 l0 -318 56 0 57 0 -6 273 -7 272
25 -50 c26 -52 84 -177 175 -377 l54 -118 93 0 93 0 -2 323 -3 322 -54 3 -54
3 7 -267 c3 -147 3 -264 -1 -260 -5 4 -62 123 -128 264 l-121 257 -85 3 c-47
1 -88 0 -92 -4z"/>
<path d="M11595 691 c-16 -4 -40 -13 -52 -20 -73 -38 -82 -230 -15 -294 32
-30 93 -46 179 -47 64 0 112 -13 125 -33 4 -7 8 -33 8 -60 0 -73 -20 -87 -125
-87 -99 0 -125 15 -125 75 l0 35 -56 0 -56 0 4 -60 c5 -71 27 -106 84 -135 32
-16 58 -20 149 -20 147 1 194 20 221 91 26 67 25 167 -2 218 -25 49 -58 62
-200 75 -124 11 -137 19 -138 86 -1 68 23 85 124 85 86 0 110 -14 110 -63 0
-26 2 -27 55 -27 l55 0 0 35 c0 55 -28 114 -64 132 -34 19 -226 28 -281 14z"/>
</g>
</svg>
