<svg version="1.1" xmlns="http://www.w3.org/2000/svg" x="0" y="0" viewBox="16 18 142 28" enable-background="new 16 18 142 28" xml:space="preserve">
	<path fill="#003860" d="M27.612,44.885c-2.341,0-5.143-0.656-6.086-3.814L15.98,20.082c-0.021-0.069-0.034-0.137-0.034-0.169
		c0-0.337,0.238-0.543,0.576-0.543h4.742c0.338,0,0.61,0.273,0.679,0.613l4.475,18.588c0.165,0.594,0.765,0.896,1.151,0.896
		c0.394,0,1.032-0.268,1.191-0.859l4.542-18.625c0.069-0.34,0.34-0.613,0.678-0.613h4.743c0.338,0,0.575,0.206,0.575,0.543
		c0,0.032-0.032,0.1-0.032,0.169l-5.57,20.988C32.749,44.229,29.951,44.885,27.612,44.885"/>
	<path fill="#003860" d="M122.009,18.987c2.344,0,5.143,0.654,6.086,3.813l5.557,20.999c0,0.068,0.035,0.135,0.035,0.176
		c0,0.332-0.236,0.537-0.578,0.537h-4.566c-0.338,0-0.609-0.268-0.674-0.611l-4.664-18.501c-0.166-0.592-0.764-0.896-1.152-0.896
		c-0.393,0-1.031,0.269-1.189,0.863L116.194,43.9c-0.066,0.344-0.338,0.611-0.678,0.611h-4.604c-0.342,0-0.576-0.205-0.576-0.537
		c0-0.041,0.033-0.107,0.033-0.176l5.557-20.999C116.872,19.641,119.671,18.987,122.009,18.987"/>
	<path fill="#003860" d="M137.269,27.833v16.058c0,0.373,0.34,0.648,0.713,0.648h4.428c0.373,0,0.676-0.275,0.676-0.648v-15.21
		c0-3.474,1.328-4.456,4.389-4.456c3.064,0,4.354,0.982,4.354,4.456l0.033,15.21c0,0.373,0.305,0.648,0.678,0.648h4.459
		c0.377,0,0.682-0.275,0.682-0.648l-0.033-16.058c0-7.759-4.76-8.891-10.172-8.891C142.063,18.942,137.269,20.074,137.269,27.833"/>
	<path fill="#003860" d="M63.275,36.072V20.017c0-0.376-0.342-0.65-0.715-0.65h-4.426c-0.373,0-0.677,0.273-0.677,0.65v15.209
		c0,3.477-1.327,4.459-4.39,4.459s-4.353-0.982-4.353-4.459l-0.032-15.209c0-0.376-0.305-0.65-0.678-0.65h-4.459
		c-0.377,0-0.681,0.273-0.681,0.65l0.033,16.055c0,7.762,4.759,8.895,10.171,8.895C58.478,44.967,63.275,43.834,63.275,36.072"/>
	<path fill="#003860" d="M93.284,20.003v9.281h1.148l6.172-9.443c0.168-0.271,0.373-0.407,0.748-0.407h5.406
		c0.373,0,0.541,0.169,0.541,0.375c0,0.134-0.064,0.302-0.168,0.476l-7.604,11.486l7.779,11.958
		c0.104,0.137,0.135,0.271,0.135,0.375c0,0.207-0.168,0.346-0.471,0.346h-5.471c-0.408,0-0.576-0.209-0.748-0.482l-6.396-9.707
		h-1.072v9.51c0,0.371-0.305,0.68-0.68,0.68h-4.615c-0.373,0-0.678-0.309-0.678-0.68V20.003c0-0.374,0.305-0.641,0.678-0.641h4.615
		C92.979,19.362,93.284,19.629,93.284,20.003"/>
	<path fill="#003860" d="M78.756,44.459c-5.65,0-9.817-0.795-9.817-8.539V20.003c0-0.374,0.304-0.645,0.678-0.645h4.448
		c0.375,0,0.683,0.271,0.683,0.645v14.962c0,3.336,0.85,3.906,3.643,3.979h5.167c0.325,0,0.589,0.264,0.589,0.594v4.332
		c0,0.328-0.264,0.592-0.589,0.592L78.756,44.459L78.756,44.459z"/>
</svg>
